<svg width="54" height="54" viewBox="0 0 54 54" fill="none" xmlns="http://www.w3.org/2000/svg">
<rect width="54" height="54" rx="10" fill="#D4AF37"/>
<path d="M27 6.75C33.2132 6.75003 38.25 11.7868 38.25 18C38.25 22.2378 35.9057 25.9264 32.4443 27.8447C35.1666 28.7089 37.6705 30.2154 39.7275 32.2725C43.1032 35.6481 45 40.2261 45 45H9C9 40.3752 10.7797 35.9338 13.96 32.5918L14.2725 32.2725C16.3293 30.2157 18.8328 28.7089 21.5547 27.8447C18.0936 25.9263 15.75 22.2375 15.75 18C15.75 11.7868 20.7868 6.75 27 6.75ZM28.8066 29.1025C28.2183 29.1975 27.6152 29.25 27 29.25C26.3845 29.25 25.781 29.1976 25.1924 29.1025C21.6143 29.5093 18.2579 31.1151 15.6865 33.6865C13.1613 36.2118 11.5676 39.494 11.126 43H42.874C42.4324 39.494 40.8387 36.2118 38.3135 33.6865C35.7419 31.1149 32.3851 29.5092 28.8066 29.1025ZM27 8.75C21.8914 8.75 17.75 12.8914 17.75 18C17.75 22.5133 20.9828 26.2693 25.2588 27.084C25.835 27.028 26.4161 27 27 27C27.5836 27 28.1643 27.0281 28.7402 27.084C33.0167 26.2696 36.25 22.5136 36.25 18C36.25 12.8914 32.1086 8.75003 27 8.75Z" fill="#333333"/>
</svg>
